<svg width="385.093994" height="317.756104" viewBox="0 0 385.094 317.756" fill="none" xmlns="http://www.w3.org/2000/svg" xmlns:xlink="http://www.w3.org/1999/xlink">
	<desc>
			Created with Pixso.
	</desc>
	<defs/>
	<path id="path56" d="M250.29 232.4L311.22 249.75L355.62 205.27L339.09 143.44L278.21 126.1L233.78 170.61L250.29 232.4Z" fill="#F57C1A" fill-opacity="1.000000" fill-rule="nonzero"/>
	<path id="path56" d="M311.22 249.75L355.62 205.27L339.09 143.44L278.21 126.1L233.78 170.61L250.29 232.4L311.22 249.75Z" stroke="#000000" stroke-opacity="0" stroke-width="0.133333"/>
	<path id="path58" d="M252.7 55.17L191.78 37.82L147.38 82.3L163.91 144.13L224.79 161.46L269.22 116.95L252.7 55.17Z" fill="#F78E1F" fill-opacity="1.000000" fill-rule="nonzero"/>
	<path id="path58" d="M191.78 37.82L147.38 82.3L163.91 144.13L224.79 161.46L269.22 116.95L252.7 55.17L191.78 37.82Z" stroke="#000000" stroke-opacity="0" stroke-width="0.133333"/>
	<path id="path60" d="M160.69 156.39L116.29 200.87L132.82 262.7L193.75 280.06L238.15 235.58L221.61 173.74L160.69 156.39Z" fill="#F57C1A" fill-opacity="1.000000" fill-rule="nonzero"/>
	<path id="path60" d="M116.29 200.87L132.82 262.7L193.75 280.06L238.15 235.58L221.61 173.74L160.69 156.39L116.29 200.87Z" stroke="#000000" stroke-opacity="0" stroke-width="0.133333"/>
	<path id="path62" d="M45.99 174.23L106.92 191.57L151.32 147.09L134.79 85.26L73.91 67.93L29.47 112.44L45.99 174.23Z" fill="#F57C1A" fill-opacity="1.000000" fill-rule="nonzero"/>
	<path id="path62" d="M106.92 191.57L151.32 147.09L134.79 85.26L73.91 67.93L29.47 112.44L45.99 174.23L106.92 191.57Z" stroke="#000000" stroke-opacity="0" stroke-width="0.133333"/>
</svg>
