<svg width="16.000000" height="14.000000" viewBox="0 0 16 14" fill="none" xmlns="http://www.w3.org/2000/svg" xmlns:xlink="http://www.w3.org/1999/xlink">
	<desc>
			Created with Pixso.
	</desc>
	<defs>
		<clipPath id="clip58_15">
			<rect id="svg" width="16.000000" height="14.000000" fill="white" fill-opacity="0"/>
		</clipPath>
	</defs>
	<g clip-path="url(#clip58_15)">
		<path id="path" d="M1.02 7.97L1 7.99C0.44 7.99 0 7.55 0 6.99C0 6.43 0.44 5.99 1 5.99L1.02 6.01L1.02 7.97ZM14.69 6.01L14.71 5.99C15.27 5.99 15.71 6.43 15.71 6.99C15.71 7.55 15.27 7.99 14.71 7.99L14.69 7.97L14.69 6.01Z" fill="#000000" fill-opacity="0" fill-rule="nonzero"/>
		<path id="path" d="M1 6.99L14.71 6.99" stroke="#DB7611" stroke-opacity="1.000000" stroke-width="2.000000" stroke-linejoin="round" stroke-linecap="round"/>
		<path id="path" d="M7.67 12.28L7.7 12.28C8.1 12.67 8.1 13.29 7.7 13.69C7.31 14.09 6.68 14.09 6.29 13.69L6.29 13.66L7.67 12.28ZM6.29 0.32L6.29 0.29C6.68 -0.11 7.31 -0.11 7.7 0.29C8.1 0.68 8.1 1.31 7.7 1.7L7.67 1.7L6.29 0.32Z" fill="#000000" fill-opacity="0" fill-rule="nonzero"/>
		<path id="path" d="M7 12.98L1 6.99L7 1" stroke="#DB7611" stroke-opacity="1.000000" stroke-width="2.000000" stroke-linejoin="round" stroke-linecap="round"/>
	</g>
</svg>
