<svg width="50.000000" height="50.228516" viewBox="0 0 50 50.2285" fill="none" xmlns="http://www.w3.org/2000/svg" xmlns:xlink="http://www.w3.org/1999/xlink">
	<desc>
			Created with Pixso.
	</desc>
	<defs>
		<clipPath id="clip182_281">
			<rect id="icons8-vk" width="50.000000" height="50.228310" fill="white" fill-opacity="0"/>
		</clipPath>
	</defs>
	<g clip-path="url(#clip182_281)">
		<path id="path" d="M41 4.01L9 4.01C6.23 4.01 4 6.26 4 9.04L4 41.18C4 43.95 6.23 46.21 9 46.21L41 46.21C43.76 46.21 46 43.95 46 41.18L46 9.04C46 6.26 43.76 4.01 41 4.01ZM37.72 33.15L33.99 33.14C33.99 33.14 33.91 33.15 33.78 33.15C33.48 33.15 32.86 33.07 32.13 32.56C30.81 31.65 29.56 29.38 28.58 29.38C28.51 29.38 28.45 29.39 28.39 29.41C27.53 29.68 27.27 30.54 27.27 31.6C27.27 31.97 27.01 32.14 26.31 32.14L24.38 32.14C22.22 32.14 20.12 32.09 17.78 29.51C14.31 25.7 11.08 18.93 11.08 18.93C11.08 18.93 10.9 18.54 11.09 18.31C11.27 18.1 11.68 18.08 11.85 18.08L15.91 18.08C15.91 18.08 16.28 18.15 16.54 18.35C16.78 18.52 16.9 18.83 16.9 18.83C16.9 18.83 17.58 20.16 18.43 21.65C19.86 24.12 20.63 24.95 21.18 24.95C21.27 24.95 21.36 24.93 21.45 24.88C22.27 24.43 22.03 20.77 22.03 20.77C22.03 20.77 22.04 19.44 21.61 18.86C21.28 18.4 20.65 18.27 20.37 18.23C20.15 18.2 20.51 17.68 20.99 17.43C21.61 17.13 22.64 17.07 23.88 17.07L24.48 17.07C25.65 17.09 25.68 17.21 26.14 17.32C27.52 17.66 27.05 18.95 27.05 22.06C27.05 23.05 26.87 24.45 27.58 24.92C27.63 24.95 27.7 24.97 27.79 24.97C28.25 24.97 29.24 24.38 30.81 21.69C31.7 20.17 32.38 18.65 32.38 18.65C32.38 18.65 32.53 18.38 32.75 18.24C32.98 18.11 32.98 18.11 33.27 18.11C33.59 18.11 36.8 18.08 37.5 18.08C38.16 18.08 38.86 18.09 38.97 18.5C39.13 19.12 38.48 20.24 36.77 22.55C33.95 26.33 33.63 26.05 35.97 28.24C38.21 30.33 38.66 31.35 38.75 31.48C39.68 33.02 37.72 33.15 37.72 33.15Z" fill="#000000" fill-opacity="1.000000" fill-rule="nonzero"/>
	</g>
</svg>
