<svg width="50.000000" height="50.000000" viewBox="0 0 50 50" fill="none" xmlns="http://www.w3.org/2000/svg" xmlns:xlink="http://www.w3.org/1999/xlink">
	<desc>
			Created with Pixso.
	</desc>
	<defs>
		<clipPath id="clip182_283">
			<rect id="icons8-телеграм" width="50.000000" height="50.228310" fill="white" fill-opacity="0"/>
		</clipPath>
	</defs>
	<g clip-path="url(#clip182_283)">
		<path id="path" d="M25 2C37.7 2 48 12.35 48 25.11C48 37.87 37.7 48.21 25 48.21C12.29 48.21 2 37.87 2 25.11C2 12.35 12.29 2 25 2ZM32.93 34.53C33.35 33.22 35.33 20.23 35.58 17.67C35.65 16.89 35.41 16.38 34.93 16.15C34.35 15.87 33.5 16.01 32.5 16.37C31.14 16.86 13.73 24.29 12.72 24.72C11.77 25.12 10.87 25.57 10.87 26.21C10.87 26.66 11.14 26.92 11.87 27.18C12.64 27.46 14.57 28.04 15.71 28.36C16.8 28.66 18.05 28.4 18.75 27.96C19.49 27.5 28.06 21.74 28.67 21.24C29.29 20.73 29.78 21.38 29.27 21.88C28.77 22.39 22.89 28.12 22.12 28.91C21.18 29.88 21.85 30.88 22.48 31.28C23.2 31.73 28.38 35.23 29.16 35.79C29.94 36.35 30.74 36.6 31.46 36.6C32.19 36.6 32.57 35.64 32.93 34.53Z" fill="#000000" fill-opacity="1.000000" fill-rule="nonzero"/>
	</g>
</svg>
